<svg width="27" height="27" viewBox="0 0 27 27" fill="none" xmlns="http://www.w3.org/2000/svg">
<path fill-rule="evenodd" clip-rule="evenodd" d="M13.5 27C20.9558 27 27 20.9558 27 13.5C27 6.04416 20.9558 0 13.5 0C6.04416 0 0 6.04416 0 13.5C0 20.9558 6.04416 27 13.5 27Z" fill="black"/>
<path fill-rule="evenodd" clip-rule="evenodd" d="M5.25005 8.86571V18.2052C5.25005 18.7132 5.62549 19.1251 6.14272 19.1251H20.8574C21.3741 19.1251 21.75 18.7085 21.75 18.2052V8.86571C21.75 8.30813 21.4138 7.87505 20.8574 7.87505H6.14272C5.56479 7.87505 5.25005 8.31877 5.25005 8.86571ZM6.60678 9.6792C6.60678 9.45414 6.74428 9.32539 6.96396 9.32539C7.09985 9.32539 12.4468 12.6815 12.7707 12.8784L13.6075 13.3939C13.8728 13.2178 14.1392 13.0672 14.4142 12.8847C14.9755 12.5293 19.9695 9.32539 20.107 9.32539C20.3272 9.32539 20.4642 9.45414 20.4642 9.6792C20.4642 9.91755 20.0007 10.1543 19.6988 10.3368C17.8023 11.4818 15.9063 12.7299 14.0286 13.9174C13.919 13.9909 13.7068 14.1478 13.5478 14.1239C13.3706 14.0967 7.92968 10.6342 6.93979 10.0575C6.79101 9.97075 6.60678 9.89148 6.60678 9.6792Z" fill="white"/>
</svg>
