<svg width="27" height="27" viewBox="0 0 27 27" fill="none" xmlns="http://www.w3.org/2000/svg">
<path fill-rule="evenodd" clip-rule="evenodd" d="M13.5007 0C6.04519 0 0 6.19586 0 13.8443C0 19.9618 3.8694 25.1451 9.23352 26.9773C9.90856 27.1039 10.1557 26.676 10.1557 26.3083C10.1557 25.9768 10.1436 25.1089 10.1376 23.9517C6.3827 24.7895 5.58712 22.0954 5.58712 22.0954C4.97236 20.4982 4.08638 20.0703 4.08638 20.0703C2.86287 19.2084 4.17678 19.2265 4.17678 19.2265C5.53288 19.3229 6.24408 20.6549 6.24408 20.6549C7.4495 22.7704 9.40228 22.1617 10.1738 21.8061C10.2943 20.914 10.6439 20.2993 11.0296 19.9557C8.03413 19.6062 4.88195 18.4188 4.88195 13.115C4.88195 11.6022 5.40631 10.3666 6.26819 9.40228C6.12956 9.05271 5.66548 7.64237 6.40078 5.7378C6.40078 5.7378 7.53388 5.36412 10.1135 7.15417C11.1923 6.84679 12.3435 6.69611 13.4947 6.69009C14.6398 6.69611 15.797 6.84679 16.8759 7.15417C19.4555 5.36412 20.5826 5.7378 20.5826 5.7378C21.3179 7.64237 20.8538 9.05271 20.7152 9.40228C21.577 10.3726 22.1014 11.6082 22.1014 13.115C22.1014 18.4309 18.9432 19.6001 15.9357 19.9437C16.4178 20.3716 16.8518 21.2154 16.8518 22.5052C16.8518 24.3555 16.8337 25.8502 16.8337 26.3023C16.8337 26.6699 17.0748 27.1039 17.7619 26.9653C23.1381 25.139 27.0014 19.9557 27.0014 13.8443C27.0014 6.19586 20.9562 0 13.5007 0Z" fill="black"/>
</svg>
