<svg width="494" height="57" viewBox="0 0 494 57" fill="none" xmlns="http://www.w3.org/2000/svg">
<path d="M466.824 36V25.632H492.96C493.296 29.76 492.936 33.648 491.88 37.296C490.824 40.944 489.168 44.136 486.912 46.872C484.656 49.608 481.824 51.768 478.416 53.352C475.008 54.888 471.096 55.656 466.68 55.656C462.6 55.656 458.832 55.008 455.376 53.712C451.968 52.416 448.992 50.592 446.448 48.24C443.952 45.84 442.008 42.984 440.616 39.672C439.224 36.312 438.528 32.616 438.528 28.584C438.528 24.552 439.248 20.904 440.688 17.64C442.128 14.376 444.144 11.592 446.736 9.28798C449.328 6.93598 452.376 5.15998 455.88 3.95998C459.384 2.71198 463.176 2.08798 467.256 2.08798C470.952 2.08798 474.24 2.63998 477.12 3.74398C480.048 4.79998 482.616 6.26398 484.824 8.13599C487.032 9.95998 488.952 12.048 490.584 14.4L477.84 20.52C476.832 18.696 475.488 17.16 473.808 15.912C472.128 14.664 469.944 14.04 467.256 14.04C464.712 14.04 462.36 14.592 460.2 15.696C458.04 16.8 456.312 18.432 455.016 20.592C453.768 22.752 453.144 25.416 453.144 28.584C453.144 31.704 453.744 34.416 454.944 36.72C456.144 38.976 457.8 40.704 459.912 41.904C462.024 43.104 464.472 43.704 467.256 43.704C468.936 43.704 470.424 43.536 471.72 43.2C473.016 42.816 474.144 42.288 475.104 41.616C476.064 40.896 476.88 40.056 477.552 39.096C478.272 38.136 478.848 37.104 479.28 36H466.824Z" fill="black"/>
<path d="M418.38 3.38398H431.772V56.304L398.004 28.152V53.784H384.612V0.863983L418.38 29.016V3.38398Z" fill="black"/>
<path d="M339.696 45.648L340.128 35.352H365.976L366.336 45.648H339.696ZM352.872 24.048L346.248 39.168L347.112 42.264L341.28 53.784H325.44L352.872 0L380.376 53.784H364.536L358.776 42.768L359.568 39.168L352.872 24.048Z" fill="black"/>
<path d="M279.169 3.384H293.137V36.072C293.137 38.376 293.737 40.248 294.937 41.688C296.137 43.08 298.937 43.776 301.337 43.776C303.785 43.776 306.609 43.08 307.809 41.688C309.009 40.248 309.609 38.376 309.609 36.072V3.384H323.577V37.224C323.577 40.632 323.025 43.536 321.921 45.936C320.817 48.336 319.281 50.304 317.313 51.84C315.345 53.328 313.089 54.432 310.545 55.152C308.001 55.872 304.265 56.232 301.337 56.232C298.457 56.232 294.721 55.872 292.129 55.152C289.585 54.432 287.329 53.328 285.361 51.84C283.441 50.304 281.929 48.336 280.825 45.936C279.721 43.536 279.169 40.632 279.169 37.224V3.384Z" fill="black"/>
<path d="M225.484 33.696V21.24H264.724V33.696H225.484ZM255.94 3.384H269.908V53.784H255.94V3.384ZM222.1 3.384H236.068V53.784H222.1V3.384Z" fill="black"/>
<path d="M178.207 3.38398H191.599V56.304L157.831 28.152V53.784H144.439V0.863983L178.207 29.016V3.38398Z" fill="black"/>
<path d="M110.085 53.784V42.48H135.501V53.784H110.085ZM110.085 14.688V3.384H135.501V14.688H110.085ZM110.085 34.048V23.104H134.061V34.048H110.085ZM100.581 3.384H113.973V53.784H100.581V3.384Z" fill="black"/>
<path d="M61.6444 3.384H75.6124V41.904H95.9884V53.784H61.6444V3.384Z" fill="black"/>
<path d="M28.296 36V25.632H54.432C54.768 29.76 54.408 33.648 53.352 37.296C52.296 40.944 50.64 44.136 48.384 46.872C46.128 49.608 43.296 51.768 39.888 53.352C36.48 54.888 32.568 55.656 28.152 55.656C24.072 55.656 20.304 55.008 16.848 53.712C13.44 52.416 10.464 50.592 7.92 48.24C5.424 45.84 3.48 42.984 2.088 39.672C0.696 36.312 0 32.616 0 28.584C0 24.552 0.72 20.904 2.16 17.64C3.6 14.376 5.616 11.592 8.208 9.28798C10.8 6.93598 13.848 5.15998 17.352 3.95998C20.856 2.71198 24.648 2.08798 28.728 2.08798C32.424 2.08798 35.712 2.63998 38.592 3.74398C41.52 4.79998 44.088 6.26398 46.296 8.13599C48.504 9.95998 50.424 12.048 52.056 14.4L39.312 20.52C38.304 18.696 36.96 17.16 35.28 15.912C33.6 14.664 31.416 14.04 28.728 14.04C26.184 14.04 23.832 14.592 21.672 15.696C19.512 16.8 17.784 18.432 16.488 20.592C15.24 22.752 14.616 25.416 14.616 28.584C14.616 31.704 15.216 34.416 16.416 36.72C17.616 38.976 19.272 40.704 21.384 41.904C23.496 43.104 25.944 43.704 28.728 43.704C30.408 43.704 31.896 43.536 33.192 43.2C34.488 42.816 35.616 42.288 36.576 41.616C37.536 40.896 38.352 40.056 39.024 39.096C39.744 38.136 40.32 37.104 40.752 36H28.296Z" fill="black"/>
</svg>
