<svg xmlns="http://www.w3.org/2000/svg" width="27" height="27" fill="none"><path fill="#000" fill-rule="evenodd" d="M13.5 27C20.956 27 27 20.956 27 13.5S20.956 0 13.5 0 0 6.044 0 13.5 6.044 27 13.5 27" clip-rule="evenodd"/><path fill="#fff" fill-rule="evenodd" d="M5.25 8.866v9.34c0 .507.375.92.893.92h14.714c.517 0 .893-.418.893-.92v-9.34c0-.558-.336-.99-.893-.99H6.143c-.578-.001-.893.443-.893.99m1.357.813c0-.225.137-.354.357-.354.136 0 5.483 3.357 5.807 3.553l.836.516c.266-.176.532-.327.807-.51.562-.355 5.556-3.559 5.693-3.559.22 0 .357.13.357.354 0 .239-.463.475-.765.658-1.897 1.145-3.793 2.393-5.67 3.58-.11.074-.322.23-.481.207-.177-.027-5.618-3.49-6.608-4.067-.149-.086-.333-.166-.333-.378" clip-rule="evenodd"/></svg>