<svg xmlns="http://www.w3.org/2000/svg" width="27" height="27" fill="none"><path fill="#000" fill-rule="evenodd" d="M13.5 0C6.046 0 0 6.196 0 13.844c0 6.118 3.87 11.301 9.234 13.133.675.127.922-.301.922-.669 0-.331-.012-1.2-.018-2.356-3.755.837-4.55-1.857-4.55-1.857-.616-1.597-1.502-2.025-1.502-2.025-1.223-.862.09-.843.09-.843 1.357.096 2.068 1.428 2.068 1.428 1.205 2.115 3.158 1.507 3.93 1.151.12-.892.47-1.507.856-1.85-2.996-.35-6.148-1.537-6.148-6.841 0-1.513.524-2.748 1.386-3.713-.138-.35-.603-1.76.133-3.664 0 0 1.133-.374 3.713 1.416a12.7 12.7 0 0 1 3.38-.464c1.146.006 2.303.157 3.382.464 2.58-1.79 3.707-1.416 3.707-1.416.735 1.904.27 3.315.132 3.664.862.97 1.386 2.206 1.386 3.713 0 5.316-3.158 6.485-6.165 6.829.482.428.916 1.271.916 2.561 0 1.85-.018 3.345-.018 3.797 0 .368.24.802.928.663 5.376-1.826 9.24-7.01 9.24-13.12C27.001 6.194 20.955 0 13.5 0" clip-rule="evenodd"/></svg>