<svg xmlns="http://www.w3.org/2000/svg" width="27" height="27" fill="none"><path fill="#000" fill-rule="evenodd" d="M13.5 0C20.95 0 27 6.05 27 13.5S20.95 27 13.5 27 0 20.95 0 13.5 6.05 0 13.5 0M9.28 21.087V10.544H5.773v10.543zm12.636 0V15.04c0-3.238-1.73-4.745-4.035-4.745-1.86 0-2.692 1.023-3.158 1.74v-1.492h-3.504c.046.99 0 10.543 0 10.543h3.504v-5.888c0-.315.022-.63.115-.855.253-.63.83-1.282 1.798-1.282 1.268 0 1.775.968 1.775 2.384v5.64zM7.55 5.46c-1.2 0-1.983.788-1.983 1.821 0 1.012.76 1.822 1.936 1.822h.023c1.222 0 1.983-.81 1.983-1.822-.023-1.033-.761-1.821-1.96-1.821" clip-rule="evenodd"/></svg>