<svg xmlns="http://www.w3.org/2000/svg" width="494" height="57" fill="none"><path fill="#000" d="M466.824 36V25.632h26.136q.504 6.192-1.08 11.664t-4.968 9.576-8.496 6.48q-5.112 2.304-11.736 2.304-6.12 0-11.304-1.944-5.112-1.944-8.928-5.472-3.744-3.6-5.832-8.568-2.088-5.04-2.088-11.088t2.16-10.944 6.048-8.352q3.888-3.528 9.144-5.328 5.256-1.872 11.376-1.872 5.544 0 9.864 1.656 4.392 1.584 7.704 4.392a31 31 0 0 1 5.76 6.264l-12.744 6.12a14.3 14.3 0 0 0-4.032-4.608q-2.52-1.872-6.552-1.872-3.816 0-7.056 1.656t-5.184 4.896q-1.872 3.24-1.872 7.992 0 4.68 1.8 8.136 1.8 3.384 4.968 5.184t7.344 1.8q2.52 0 4.464-.504 1.944-.576 3.384-1.584 1.44-1.08 2.448-2.52 1.08-1.44 1.728-3.096zM418.38 3.384h13.392v52.92l-33.768-28.152v25.632h-13.392V.864l33.768 28.152zm-78.684 42.264.432-10.296h25.848l.36 10.296zm13.176-21.6-6.624 15.12.864 3.096-5.832 11.52h-15.84L352.872 0l27.504 53.784h-15.84l-5.76-11.016.792-3.6zM279.169 3.384h13.968v32.688q0 3.456 1.8 5.616c1.2 1.392 4 2.088 6.4 2.088 2.448 0 5.272-.696 6.472-2.088q1.8-2.16 1.8-5.616V3.384h13.968v33.84q0 5.112-1.656 8.712t-4.608 5.904q-2.952 2.232-6.768 3.312c-2.544.72-6.28 1.08-9.208 1.08-2.88 0-6.616-.36-9.208-1.08q-3.816-1.08-6.768-3.312-2.88-2.304-4.536-5.904t-1.656-8.712zm-53.685 30.312V21.24h39.24v12.456zM255.94 3.384h13.968v50.4H255.94zm-33.84 0h13.968v50.4H222.1zm-43.893 0h13.392v52.92l-33.768-28.152v25.632h-13.392V.864l33.768 28.152zm-68.122 50.4V42.48h25.416v11.304zm0-39.096V3.384h25.416v11.304zm0 19.36V23.104h23.976v10.944zm-9.504-30.664h13.392v50.4h-13.392zm-38.937 0h13.968v38.52h20.376v11.88H61.644zM28.296 36V25.632h26.136q.504 6.192-1.08 11.664t-4.968 9.576-8.496 6.48q-5.112 2.304-11.736 2.304-6.12 0-11.304-1.944-5.112-1.944-8.928-5.472-3.744-3.6-5.832-8.568Q0 34.632 0 28.584T2.16 17.64t6.048-8.352q3.888-3.528 9.144-5.328 5.256-1.872 11.376-1.872 5.544 0 9.864 1.656 4.392 1.584 7.704 4.392a31 31 0 0 1 5.76 6.264l-12.744 6.12a14.3 14.3 0 0 0-4.032-4.608q-2.52-1.872-6.552-1.872-3.816 0-7.056 1.656t-5.184 4.896q-1.872 3.24-1.872 7.992 0 4.68 1.8 8.136 1.8 3.384 4.968 5.184t7.344 1.8q2.52 0 4.464-.504 1.944-.576 3.384-1.584 1.44-1.08 2.448-2.52 1.08-1.44 1.728-3.096z"/></svg>