<svg xmlns="http://www.w3.org/2000/svg" width="112" height="54" fill="none"><path fill="#000" d="M67.384 31.696V19.24h39.24v12.456zM97.84 1.384h13.968v50.4H97.84zm-33.84 0h13.968v50.4H64zM28.296 34V23.632h26.136q.504 6.192-1.08 11.664t-4.968 9.576-8.496 6.48q-5.112 2.304-11.736 2.304-6.12 0-11.304-1.944-5.112-1.944-8.928-5.472-3.744-3.6-5.832-8.568Q0 32.632 0 26.584T2.16 15.64t6.048-8.352q3.888-3.528 9.144-5.328Q22.608.088 28.728.088q5.544 0 9.864 1.656 4.392 1.584 7.704 4.392a31 31 0 0 1 5.76 6.264l-12.744 6.12a14.3 14.3 0 0 0-4.032-4.608q-2.52-1.872-6.552-1.872-3.816 0-7.056 1.656t-5.184 4.896q-1.872 3.24-1.872 7.992 0 4.68 1.8 8.136 1.8 3.384 4.968 5.184t7.344 1.8q2.52 0 4.464-.504 1.944-.576 3.384-1.584 1.44-1.08 2.448-2.52 1.08-1.44 1.728-3.096z"/></svg>